<svg xmlns="http://www.w3.org/2000/svg" width="1024" height="1024" viewBox="0 0 1024 1024">
  <defs>
    <linearGradient id="mainGradient" gradientUnits="userSpaceOnUse" x1="0" y1="0" x2="33" y2="46" gradientTransform="rotate(-15 16.5 23)">
      <stop offset="0%" stop-color="#2EC4B6"/>
      <stop offset="35%" stop-color="#5BC0BE"/>
      <stop offset="65%" stop-color="#F4A261"/>
      <stop offset="100%" stop-color="#E76F51"/>
    </linearGradient>
  </defs>
  <g transform="translate(176 50) scale(20.5)">
    <path fill="url(#mainGradient)" fill-rule="evenodd" clip-rule="evenodd" d="M30.5 24.9h-4c-1.2 0-2.3-.6-2.3-1.8 0 0-.7-14.2-.7-22.8V0h9.3v23.1c0 1.3-1.1 1.8-2.3 1.8z"/>
    <path fill="url(#mainGradient)" fill-rule="evenodd" clip-rule="evenodd" d="M24.2 23.1c0 4.3-3.5 7.7-7.8 7.7S8.6 27 8.6 23H0c0 8 7.3 16.4 16.4 16.4 9 0 16.3-7.3 16.4-16.3v-.2l-8.6-.6v.8z"/>
    <path fill="url(#mainGradient)" fill-rule="evenodd" clip-rule="evenodd" d="M16.4 6.7C7.3 6.7 0 14 0 23v23h9s0 .1 0 0c0-8.6-.5-22.9-.5-22.9l.1-.1c0-4 3.5-7.7 7.8-7.7s7.8 3.7 7.8 7.7h8.6c-.1-9-7.4-16.3-16.4-16.3z"/>
  </g>
</svg>
